# xmcd
#
# Track frame offsets:
#	150
#	22242
#	40495
#	76480
#	92575
#	130885
#	148330
#	173710
#	193757
#	223745
#	240427
#	257447
#	308397
#
# Disc length: 4359 seconds
#
# Revision: 1
# Processed by: cddbd v1.4PL0 Copyright (c) Steve Scherf et al.
# Submitted via: audiograbber 1.82.02
#
DISCID=b311050d
DTITLE=Roy Buchanan - Live
DYEAR=1900
DGENRE=Blues
TTITLE0=Till I get there
TTITLE1=Sunday Morning Blues
TTITLE2=My Baby Says She's Gone
TTITLE3=Further on up the Road
TTITLE4=Blues Before Sunrise
TTITLE5=Slow Down
TTITLE6=Delta Blues
TTITLE7=I am a Lonesome Fugitive
TTITLE8=Honky Tonk in F
TTITLE9=Sweet Dreams
TTITLE10=Peter Gun
TTITLE11=Roy's Blues - Night Train
TTITLE12=Linda's Love
EXTD=
EXTT0=
EXTT1=
EXTT2=
EXTT3=
EXTT4=
EXTT5=
EXTT6=
EXTT7=
EXTT8=
EXTT9=
EXTT10=
EXTT11=
EXTT12=
PLAYORDER=
